<svg id="svg" xmlns="http://www.w3.org/2000/svg" xmlns:xlink="http://www.w3.org/1999/xlink" width="400" height="400" viewBox="0, 0, 400,400">
	<defs>
		<linearGradient id="grad1" x1="0%" x2="0%" y1="0%" y2="100%">
			<stop offset="0%" stop-color="#ff4e6b" />
			<stop offset="100%" stop-color="#ff0436" />
		</linearGradient>
	</defs>
	<path d="M308.000 11.008 C 299.313 12.551,293.570 13.701,199.200 32.797 C 178.080 37.071,157.680 41.174,153.867 41.917 C 130.476 46.469,127.647 47.495,123.542 52.909 C 120.026 57.546,120.294 48.799,120.000 168.267 L 119.733 276.533 118.593 278.999 C 115.438 285.822,113.129 286.948,94.133 290.922 C 59.268 298.216,49.983 302.739,41.230 316.697 C 21.922 347.480,46.651 385.027,83.815 381.356 C 116.450 378.132,133.997 364.383,139.600 337.645 C 140.350 334.066,140.483 322.328,140.757 235.733 L 141.067 137.867 142.276 135.413 C 144.473 130.953,146.545 130.336,184.267 122.919 C 187.787 122.227,213.924 116.967,242.350 111.231 C 302.568 99.078,301.463 99.192,304.267 104.800 C 305.559 107.385,306.281 231.653,305.041 238.127 C 303.239 247.536,300.615 249.143,280.164 253.352 C 257.982 257.918,250.713 260.051,242.933 264.279 C 217.464 278.119,212.553 312.153,233.155 332.043 C 243.987 342.501,256.163 345.757,274.746 343.166 C 304.415 339.027,320.737 324.863,325.406 299.200 C 326.008 295.888,326.133 271.530,326.133 157.600 L 326.133 20.000 324.731 17.010 C 321.848 10.861,317.534 9.314,308.000 11.008" fill="url(#grad1)">
	</path>
</svg>