<svg id="svg" xmlns="http://www.w3.org/2000/svg" xmlns:xlink="http://www.w3.org/1999/xlink" width="400" height="400" viewBox="0, 0, 400,400"><path d="M99.845 51.148 C 43.292 56.248,0.487 103.005,0.535 159.627 C 0.560 189.258,12.712 212.585,46.030 246.958 C 54.212 255.399,149.125 344.769,150.621 345.441 C 154.653 347.251,159.738 345.338,161.616 341.304 C 162.264 339.914,162.268 339.700,162.426 299.534 L 162.586 259.161 163.404 256.188 C 174.087 217.372,227.517 218.288,237.207 257.453 C 237.649 259.237,237.726 264.157,237.875 299.689 C 238.042 339.641,238.048 339.916,238.692 341.308 C 240.596 345.421,245.737 347.330,249.719 345.402 C 251.359 344.609,347.797 253.628,355.912 245.220 C 389.356 210.564,400.952 186.506,399.649 154.482 C 396.967 88.567,335.284 40.091,270.288 52.817 C 243.411 58.080,218.516 74.115,202.258 96.635 L 200.091 99.637 198.543 97.412 C 176.749 66.083,137.621 47.741,99.845 51.148 M85.114 84.658 C 88.098 85.535,90.376 88.566,90.371 91.651 C 90.366 94.574,89.191 96.217,84.958 99.217 C 68.665 110.767,56.832 134.196,56.832 154.909 C 56.832 180.779,69.678 203.908,99.815 232.298 C 104.595 236.801,104.108 242.765,98.768 245.127 C 95.084 246.757,93.042 245.888,86.646 239.964 C 38.662 195.526,28.984 145.661,60.160 103.496 C 66.368 95.100,77.118 85.496,81.470 84.459 C 82.964 84.104,83.291 84.121,85.114 84.658 M320.652 85.257 C 326.719 88.250,336.975 98.506,343.004 107.609 C 370.485 149.101,360.148 196.530,314.291 239.352 C 307.339 245.844,305.380 246.756,301.708 245.211 C 296.118 242.861,295.641 236.695,300.689 232.059 C 328.900 206.154,342.403 182.503,343.370 157.298 C 344.192 135.898,332.386 111.358,315.469 99.306 C 310.906 96.055,309.957 94.738,309.945 91.635 C 309.922 86.118,315.573 82.752,320.652 85.257 M140.966 103.903 C 147.090 105.721,147.944 114.103,142.327 117.252 C 108.590 136.165,109.968 182.809,144.895 204.187 C 151.092 207.980,152.513 212.705,148.664 216.720 C 144.548 221.014,139.384 219.424,128.882 210.631 C 93.213 180.764,94.802 129.548,132.119 106.289 C 136.585 103.505,138.180 103.075,140.966 103.903 M263.199 103.761 C 264.859 104.217,269.576 107.012,272.844 109.477 C 304.556 133.395,305.462 178.437,274.816 207.576 C 262.068 219.697,253.635 222.164,250.271 214.758 C 248.458 210.769,250.069 207.459,255.416 204.187 C 288.161 184.144,291.800 138.671,262.163 119.876 C 260.412 118.766,258.326 117.438,257.527 116.925 C 250.685 112.538,255.390 101.616,263.199 103.761 M208.208 132.113 C 230.461 137.879,239.927 164.780,226.107 182.982 C 209.129 205.344,173.929 197.385,168.332 169.918 C 163.596 146.679,185.238 126.160,208.208 132.113 " fill="#C6002B"></path></svg>