<svg id="svg" xmlns="http://www.w3.org/2000/svg" xmlns:xlink="http://www.w3.org/1999/xlink" width="400" height="400" viewBox="0, 0, 400,400"><path id="path0" d="M155.313 59.445 C 102.567 60.509,64.781 62.967,47.684 66.446 C 27.640 70.524,12.907 84.608,7.935 104.443 C -1.325 141.385,-2.593 234.881,5.504 283.651 C 11.086 317.272,25.417 331.098,59.128 335.384 C 123.855 343.613,308.544 342.461,352.316 333.554 C 372.360 329.476,387.093 315.392,392.065 295.557 C 401.325 258.615,402.593 165.119,394.496 116.349 C 388.914 82.728,374.587 68.906,340.872 64.616 C 306.490 60.240,226.435 58.009,155.313 59.445 M211.035 170.562 C 239.135 186.531,262.125 199.780,262.125 200.004 C 262.125 200.285,172.511 251.553,159.537 258.695 C 159.312 258.819,159.128 232.406,159.128 200.000 C 159.128 167.594,159.312 141.181,159.537 141.304 C 159.762 141.428,182.936 154.594,211.035 170.562 " fill="#ff0000"></path></svg>